<?xml version="1.0" encoding="UTF-8"?><svg id="_イヤー_1" xmlns="http://www.w3.org/2000/svg" viewBox="0 0 87.83 88.4"><defs><style>.cls-1{fill:#b0dcdf;}.cls-2{fill:#040000;opacity:.1;}.cls-3{fill:#aedbd6;}.cls-4{fill:#fcf3dd;}</style></defs><g><polygon class="cls-3" points="32.14 6.86 32.14 71.58 20.75 71.58 20.75 8.24 31.07 7 32.14 6.86"/><polygon class="cls-3" points="87.5 .1 87.5 15.94 76.12 17.33 32.14 22.69 20.75 24.08 20.75 8.24 31.07 7 32.14 6.86 76.12 1.49 84.87 .43 87.5 .1"/><polygon class="cls-4" points="87.5 20.7 87.5 24.66 76.12 26.05 32.14 31.41 20.75 32.8 20.75 28.85 32.14 27.46 76.12 22.08 87.5 20.7"/><polygon class="cls-3" points="87.5 .1 87.5 60.84 76.12 60.84 76.12 1.49 84.87 .43 87.5 .1"/><path class="cls-3" d="M21.42,86.58c-4.43,1.92-9.09,2.12-12.92,.87-3.42-1.12-6.2-3.37-7.58-6.57-.22-.5-.4-1.02-.53-1.54-1.75-6.47,2.58-13.96,10.33-17.35,3.36-1.47,6.87-1.92,10.04-1.51,4.71,.61,8.7,3.15,10.47,7.21,.55,1.26,.84,2.56,.9,3.89,.28,5.86-3.89,12.02-10.7,15Z"/><ellipse class="cls-1" cx="71.42" cy="62.8" rx="16.53" ry="13.4" transform="translate(-19.14 33.75) rotate(-23.54)"/></g><path class="cls-2" d="M70.15,17.68l6.3-.77v4.75l-11.71,1.43-4.51,4.51,16.22-1.98v22.96c-3.18-.42-6.68,.03-10.05,1.5-8.37,3.64-12.75,12.1-9.8,18.89,2.96,6.79,12.14,9.33,20.5,5.69,6.53-2.85,10.62-8.63,10.7-14.25h.03V0l-17.68,17.68Z"/><path class="cls-2" d="M8.46,87.61c3.83,1.24,8.5,1.05,12.92-.87,6.81-2.98,10.98-9.13,10.7-15h.01v-15.8L3.4,84.63c1.39,1.33,3.11,2.34,5.05,2.98Z"/></svg>